<svg xmlns="http://www.w3.org/2000/svg" width="44.833" height="44.833" viewBox="0 0 44.833 44.833">
  <path id="Icon_awesome-facebook-square" data-name="Icon awesome-facebook-square" d="M40.029,2.25H4.8A4.8,4.8,0,0,0,0,7.054V42.279a4.8,4.8,0,0,0,4.8,4.8H18.539V31.841h-6.3V24.666h6.3V19.2c0-6.22,3.7-9.655,9.374-9.655a38.2,38.2,0,0,1,5.556.484v6.1H30.339c-3.083,0-4.045,1.913-4.045,3.876v4.658h6.883l-1.1,7.174H26.294V47.083H40.029a4.8,4.8,0,0,0,4.8-4.8V7.054a4.8,4.8,0,0,0-4.8-4.8Z" transform="translate(0 -2.25)" fill="#f1faee"/>
</svg>
