<svg xmlns="http://www.w3.org/2000/svg" width="32.772" height="30.73" viewBox="0 0 32.772 30.73">
  <defs>
    <style>
      .cls-1 {
        fill: #949d9f;
      }
    </style>
  </defs>
  <path id="Layer_3" data-name="Layer 3" class="cls-1" d="M34.677,10.585H28.586l1.1-5.3A1.1,1.1,0,0,0,28.619,4H26.424a1.1,1.1,0,0,0-1.1.856l-1.119,5.729H18.281l1.1-5.3A1.1,1.1,0,0,0,18.358,4H16.163a1.1,1.1,0,0,0-1.1.856l-1.1,5.729H7.383a1.1,1.1,0,0,0-1.1.878l-.45,2.195a1.1,1.1,0,0,0,1.1,1.317h6.091l-1.8,8.78H4.639a1.1,1.1,0,0,0-1.1.878l-.45,2.195a1.1,1.1,0,0,0,1.1,1.317h6.135l-1.1,5.3a1.1,1.1,0,0,0,1.1,1.284h2.195a1.1,1.1,0,0,0,1.043-.856L14.7,28.145H20.63l-1.1,5.3a1.1,1.1,0,0,0,1.021,1.284h2.195a1.1,1.1,0,0,0,1.1-.856L25,28.145h6.585a1.1,1.1,0,0,0,1.1-.878l.439-2.195a1.1,1.1,0,0,0-1.1-1.317H25.9l1.789-8.78h6.585a1.1,1.1,0,0,0,1.1-.878l.45-2.195a1.1,1.1,0,0,0-1.141-1.317Zm-13.17,13.17H15.581l1.8-8.78h5.926Z" transform="translate(-3.07 -4)"/>
</svg>
