<svg xmlns="http://www.w3.org/2000/svg" width="35.858" height="36.552" viewBox="0 0 35.858 36.552">
  <defs>
    <style>
      .cls-1 {
        fill: #f1faee;
      }
    </style>
  </defs>
  <path id="Icon_ionic-logo-google" data-name="Icon ionic-logo-google" class="cls-1" d="M39.3,18.841l-.185-.782H22.112v7.2h10.16c-1.055,5.01-5.95,7.646-9.949,7.646a11.9,11.9,0,0,1-8.006-3.19,11.43,11.43,0,0,1-3.41-8.068,11.789,11.789,0,0,1,3.348-8.059,11.39,11.39,0,0,1,7.954-3.111,10.374,10.374,0,0,1,6.767,2.637l5.115-5.089a18.1,18.1,0,0,0-12.049-4.64h0A18.627,18.627,0,0,0,8.859,8.743a18.552,18.552,0,0,0-5.2,12.911,18.365,18.365,0,0,0,5,12.7,19.078,19.078,0,0,0,13.754,5.581A16.966,16.966,0,0,0,34.768,34.74,18.245,18.245,0,0,0,39.514,22.1,21.043,21.043,0,0,0,39.3,18.841Z" transform="translate(-3.656 -3.382)"/>
</svg>
