<svg xmlns="http://www.w3.org/2000/svg" width="24.425" height="24.402" viewBox="0 0 24.425 24.402">
  <path id="magnifier" d="M23.972,23.948a1.527,1.527,0,0,1-2.171,0l-4.722-4.723A10.651,10.651,0,0,1,6.536,20.5,10.531,10.531,0,0,1,.847,14.825a10.625,10.625,0,0,1,0-8.313,10.641,10.641,0,0,1,2.278-3.4A10.777,10.777,0,0,1,6.535.847a10.6,10.6,0,0,1,8.3,0,10.88,10.88,0,0,1,3.411,2.266,10.576,10.576,0,0,1,2.278,3.4,10.44,10.44,0,0,1,.847,4.15,10.407,10.407,0,0,1-2.123,6.393l4.723,4.723a1.527,1.527,0,0,1,0,2.171ZM10.686,3.053a7.608,7.608,0,0,0-7.633,7.621A7.6,7.6,0,0,0,10.686,18.3a7.608,7.608,0,0,0,7.633-7.621,7.6,7.6,0,0,0-7.633-7.621Z" transform="translate(0 0)" fill="#949d9f"/>
</svg>
